<mxfile host="65bd71144e" pages="3">
    <diagram name="authentication" id="52a04d89-c75d-2922-d76d-85b35f80e030">
        <mxGraphModel dx="1757" dy="1394" grid="1" gridSize="10" guides="1" tooltips="1" connect="1" arrows="1" fold="1" page="1" pageScale="1" pageWidth="1100" pageHeight="850" background="none" math="0" shadow="0">
            <root>
                <mxCell id="0"/>
                <mxCell id="1" parent="0"/>
                <mxCell id="UXE0n5PbbgXk-ugbQSrG-2" value="app2&lt;span style=&quot;background-color: initial;&quot;&gt;.example.local&lt;/span&gt;" style="rounded=0;whiteSpace=wrap;html=1;" parent="1" vertex="1">
                    <mxGeometry x="620" y="220" width="160" height="60" as="geometry"/>
                </mxCell>
                <mxCell id="UXE0n5PbbgXk-ugbQSrG-32" style="edgeStyle=orthogonalEdgeStyle;rounded=0;orthogonalLoop=1;jettySize=auto;html=1;entryX=0.5;entryY=1;entryDx=0;entryDy=0;" parent="1" target="UXE0n5PbbgXk-ugbQSrG-4" edge="1">
                    <mxGeometry relative="1" as="geometry">
                        <mxPoint x="380" y="95" as="sourcePoint"/>
                    </mxGeometry>
                </mxCell>
                <mxCell id="UXE0n5PbbgXk-ugbQSrG-4" value="identity server" style="rounded=0;whiteSpace=wrap;html=1;" parent="1" vertex="1">
                    <mxGeometry x="320" y="-60" width="120" height="60" as="geometry"/>
                </mxCell>
                <mxCell id="UXE0n5PbbgXk-ugbQSrG-6" value="redirect to: return_url" style="text;html=1;align=center;verticalAlign=middle;resizable=0;points=[];autosize=1;strokeColor=none;fillColor=none;" parent="1" vertex="1">
                    <mxGeometry x="120" y="60" width="130" height="30" as="geometry"/>
                </mxCell>
                <mxCell id="UXE0n5PbbgXk-ugbQSrG-8" value="/authorize" style="text;html=1;align=center;verticalAlign=middle;resizable=0;points=[];autosize=1;strokeColor=none;fillColor=none;" parent="1" vertex="1">
                    <mxGeometry x="300" y="20" width="80" height="30" as="geometry"/>
                </mxCell>
                <mxCell id="UXE0n5PbbgXk-ugbQSrG-31" style="edgeStyle=orthogonalEdgeStyle;rounded=0;orthogonalLoop=1;jettySize=auto;html=1;entryX=0.5;entryY=1;entryDx=0;entryDy=0;" parent="1" source="UXE0n5PbbgXk-ugbQSrG-12" target="UXE0n5PbbgXk-ugbQSrG-1" edge="1">
                    <mxGeometry relative="1" as="geometry"/>
                </mxCell>
                <mxCell id="UXE0n5PbbgXk-ugbQSrG-52" style="edgeStyle=orthogonalEdgeStyle;rounded=0;orthogonalLoop=1;jettySize=auto;html=1;entryX=0.5;entryY=1;entryDx=0;entryDy=0;" parent="1" source="UXE0n5PbbgXk-ugbQSrG-12" target="UXE0n5PbbgXk-ugbQSrG-2" edge="1">
                    <mxGeometry relative="1" as="geometry"/>
                </mxCell>
                <mxCell id="UXE0n5PbbgXk-ugbQSrG-12" value="User" style="shape=umlActor;verticalLabelPosition=bottom;verticalAlign=top;html=1;outlineConnect=0;" parent="1" vertex="1">
                    <mxGeometry x="365" y="340" width="30" height="60" as="geometry"/>
                </mxCell>
                <mxCell id="UXE0n5PbbgXk-ugbQSrG-20" value="/callback?code=" style="text;html=1;align=center;verticalAlign=middle;resizable=0;points=[];autosize=1;strokeColor=none;fillColor=none;" parent="1" vertex="1">
                    <mxGeometry x="390" y="20" width="110" height="30" as="geometry"/>
                </mxCell>
                <mxCell id="UXE0n5PbbgXk-ugbQSrG-25" value="store cookie: auth-session&lt;br&gt;SameSite: Lax; Path: /;" style="text;html=1;align=center;verticalAlign=middle;resizable=0;points=[];autosize=1;strokeColor=none;fillColor=none;" parent="1" vertex="1">
                    <mxGeometry x="380" y="155" width="160" height="40" as="geometry"/>
                </mxCell>
                <mxCell id="UXE0n5PbbgXk-ugbQSrG-33" value="" style="endArrow=classic;html=1;rounded=0;entryX=0.584;entryY=-0.005;entryDx=0;entryDy=0;entryPerimeter=0;exitX=0.581;exitY=0.992;exitDx=0;exitDy=0;exitPerimeter=0;" parent="1" source="UXE0n5PbbgXk-ugbQSrG-4" target="UXE0n5PbbgXk-ugbQSrG-35" edge="1">
                    <mxGeometry width="50" height="50" relative="1" as="geometry">
                        <mxPoint x="390" y="65" as="sourcePoint"/>
                        <mxPoint x="389.72" y="95.65999999999985" as="targetPoint"/>
                    </mxGeometry>
                </mxCell>
                <mxCell id="UXE0n5PbbgXk-ugbQSrG-34" value="browser cookies" style="rounded=0;whiteSpace=wrap;html=1;" parent="1" vertex="1">
                    <mxGeometry x="320" y="220" width="120" height="60" as="geometry"/>
                </mxCell>
                <mxCell id="UXE0n5PbbgXk-ugbQSrG-35" value="auth.example.local" style="rounded=0;whiteSpace=wrap;html=1;" parent="1" vertex="1">
                    <mxGeometry x="320" y="70" width="120" height="60" as="geometry"/>
                </mxCell>
                <mxCell id="UXE0n5PbbgXk-ugbQSrG-44" value="" style="endArrow=classic;html=1;rounded=0;exitX=-0.014;exitY=0.344;exitDx=0;exitDy=0;exitPerimeter=0;entryX=0.436;entryY=-0.007;entryDx=0;entryDy=0;entryPerimeter=0;" parent="1" source="UXE0n5PbbgXk-ugbQSrG-35" target="UXE0n5PbbgXk-ugbQSrG-1" edge="1">
                    <mxGeometry width="50" height="50" relative="1" as="geometry">
                        <mxPoint x="290" y="220" as="sourcePoint"/>
                        <mxPoint x="340" y="170" as="targetPoint"/>
                        <Array as="points">
                            <mxPoint x="50" y="90"/>
                        </Array>
                    </mxGeometry>
                </mxCell>
                <mxCell id="UXE0n5PbbgXk-ugbQSrG-1" value="app1.example.local" style="rounded=0;whiteSpace=wrap;html=1;" parent="1" vertex="1">
                    <mxGeometry x="-20" y="220" width="160" height="60" as="geometry"/>
                </mxCell>
                <mxCell id="UXE0n5PbbgXk-ugbQSrG-47" value="" style="endArrow=classic;html=1;rounded=0;exitX=0.5;exitY=0;exitDx=0;exitDy=0;entryX=0;entryY=0.5;entryDx=0;entryDy=0;" parent="1" source="UXE0n5PbbgXk-ugbQSrG-1" target="UXE0n5PbbgXk-ugbQSrG-35" edge="1">
                    <mxGeometry width="50" height="50" relative="1" as="geometry">
                        <mxPoint x="400" y="260" as="sourcePoint"/>
                        <mxPoint x="450" y="210" as="targetPoint"/>
                        <Array as="points">
                            <mxPoint x="60" y="100"/>
                        </Array>
                    </mxGeometry>
                </mxCell>
                <mxCell id="UXE0n5PbbgXk-ugbQSrG-53" value="" style="endArrow=classic;startArrow=classic;html=1;rounded=0;entryX=0.5;entryY=1;entryDx=0;entryDy=0;exitX=0.5;exitY=0;exitDx=0;exitDy=0;" parent="1" source="UXE0n5PbbgXk-ugbQSrG-34" target="UXE0n5PbbgXk-ugbQSrG-35" edge="1">
                    <mxGeometry width="50" height="50" relative="1" as="geometry">
                        <mxPoint x="330" y="210" as="sourcePoint"/>
                        <mxPoint x="380" y="160" as="targetPoint"/>
                    </mxGeometry>
                </mxCell>
                <mxCell id="UXE0n5PbbgXk-ugbQSrG-54" value="" style="endArrow=classic;html=1;rounded=0;entryX=0;entryY=0.5;entryDx=0;entryDy=0;exitX=1;exitY=0.5;exitDx=0;exitDy=0;" parent="1" source="UXE0n5PbbgXk-ugbQSrG-1" target="UXE0n5PbbgXk-ugbQSrG-34" edge="1">
                    <mxGeometry width="50" height="50" relative="1" as="geometry">
                        <mxPoint x="100" y="440" as="sourcePoint"/>
                        <mxPoint x="150" y="390" as="targetPoint"/>
                    </mxGeometry>
                </mxCell>
                <mxCell id="UXE0n5PbbgXk-ugbQSrG-55" value="" style="endArrow=classic;html=1;rounded=0;entryX=1;entryY=0.5;entryDx=0;entryDy=0;exitX=0;exitY=0.5;exitDx=0;exitDy=0;" parent="1" source="UXE0n5PbbgXk-ugbQSrG-2" target="UXE0n5PbbgXk-ugbQSrG-34" edge="1">
                    <mxGeometry width="50" height="50" relative="1" as="geometry">
                        <mxPoint x="480" y="440" as="sourcePoint"/>
                        <mxPoint x="530" y="390" as="targetPoint"/>
                    </mxGeometry>
                </mxCell>
                <mxCell id="UXE0n5PbbgXk-ugbQSrG-59" value="/auth/signin?return_url=" style="text;html=1;align=center;verticalAlign=middle;resizable=0;points=[];autosize=1;strokeColor=none;fillColor=none;" parent="1" vertex="1">
                    <mxGeometry x="120" y="100" width="150" height="30" as="geometry"/>
                </mxCell>
                <mxCell id="UXE0n5PbbgXk-ugbQSrG-61" value="Browsers to" style="text;html=1;align=center;verticalAlign=middle;whiteSpace=wrap;rounded=0;" parent="1" vertex="1">
                    <mxGeometry x="160" y="370" width="80" height="30" as="geometry"/>
                </mxCell>
                <mxCell id="UXE0n5PbbgXk-ugbQSrG-74" value="use cookie&amp;nbsp;&lt;span style=&quot;background-color: initial;&quot;&gt;to authorization&lt;/span&gt;" style="text;html=1;align=left;verticalAlign=middle;resizable=0;points=[];autosize=1;strokeColor=none;fillColor=none;" parent="1" vertex="1">
                    <mxGeometry x="150" y="260" width="170" height="30" as="geometry"/>
                </mxCell>
                <mxCell id="UXE0n5PbbgXk-ugbQSrG-78" value="" style="endArrow=classic;html=1;rounded=0;exitX=1;exitY=0.5;exitDx=0;exitDy=0;" parent="1" edge="1">
                    <mxGeometry width="50" height="50" relative="1" as="geometry">
                        <mxPoint x="320" y="260" as="sourcePoint"/>
                        <mxPoint x="140" y="259" as="targetPoint"/>
                    </mxGeometry>
                </mxCell>
                <mxCell id="UXE0n5PbbgXk-ugbQSrG-79" value="" style="endArrow=classic;html=1;rounded=0;entryX=-0.007;entryY=0.663;entryDx=0;entryDy=0;exitX=1;exitY=0.5;exitDx=0;exitDy=0;entryPerimeter=0;" parent="1" target="UXE0n5PbbgXk-ugbQSrG-2" edge="1">
                    <mxGeometry width="50" height="50" relative="1" as="geometry">
                        <mxPoint x="440" y="260" as="sourcePoint"/>
                        <mxPoint x="560" y="260" as="targetPoint"/>
                    </mxGeometry>
                </mxCell>
                <mxCell id="UXE0n5PbbgXk-ugbQSrG-80" value="use cookie&amp;nbsp;&lt;span style=&quot;background-color: initial;&quot;&gt;to authorization&lt;/span&gt;" style="text;html=1;align=left;verticalAlign=middle;resizable=0;points=[];autosize=1;strokeColor=none;fillColor=none;" parent="1" vertex="1">
                    <mxGeometry x="450" y="260" width="170" height="30" as="geometry"/>
                </mxCell>
                <mxCell id="UXE0n5PbbgXk-ugbQSrG-83" value="Browsers to" style="text;html=1;align=center;verticalAlign=middle;whiteSpace=wrap;rounded=0;" parent="1" vertex="1">
                    <mxGeometry x="520" y="370" width="80" height="30" as="geometry"/>
                </mxCell>
            </root>
        </mxGraphModel>
    </diagram>
    <diagram id="sj6kJow7FIS_4MH3ASW7" name="authorization">
        <mxGraphModel dx="657" dy="544" grid="1" gridSize="10" guides="1" tooltips="1" connect="1" arrows="1" fold="1" page="1" pageScale="1" pageWidth="850" pageHeight="1100" math="0" shadow="0">
            <root>
                <mxCell id="0"/>
                <mxCell id="1" parent="0"/>
                <mxCell id="G9qSIX0Mn2szh2WbC5xG-1" style="edgeStyle=orthogonalEdgeStyle;rounded=0;orthogonalLoop=1;jettySize=auto;html=1;entryX=0;entryY=0.5;entryDx=0;entryDy=0;" parent="1" source="G9qSIX0Mn2szh2WbC5xG-3" target="G9qSIX0Mn2szh2WbC5xG-5" edge="1">
                    <mxGeometry relative="1" as="geometry"/>
                </mxCell>
                <mxCell id="G9qSIX0Mn2szh2WbC5xG-2" style="edgeStyle=orthogonalEdgeStyle;rounded=0;orthogonalLoop=1;jettySize=auto;html=1;entryX=0;entryY=0.5;entryDx=0;entryDy=0;" parent="1" source="G9qSIX0Mn2szh2WbC5xG-3" target="G9qSIX0Mn2szh2WbC5xG-4" edge="1">
                    <mxGeometry relative="1" as="geometry">
                        <Array as="points">
                            <mxPoint x="80" y="670"/>
                        </Array>
                    </mxGeometry>
                </mxCell>
                <mxCell id="G9qSIX0Mn2szh2WbC5xG-3" value="app1.example.local" style="rounded=0;whiteSpace=wrap;html=1;" parent="1" vertex="1">
                    <mxGeometry y="520" width="160" height="60" as="geometry"/>
                </mxCell>
                <mxCell id="G9qSIX0Mn2szh2WbC5xG-4" value="identity server" style="rounded=0;whiteSpace=wrap;html=1;" parent="1" vertex="1">
                    <mxGeometry x="400" y="640" width="120" height="60" as="geometry"/>
                </mxCell>
                <mxCell id="G9qSIX0Mn2szh2WbC5xG-5" value="auth.example.local" style="rounded=0;whiteSpace=wrap;html=1;" parent="1" vertex="1">
                    <mxGeometry x="400" y="520" width="120" height="60" as="geometry"/>
                </mxCell>
                <mxCell id="G9qSIX0Mn2szh2WbC5xG-6" value="GET /v1/sessions&lt;br&gt;cookie: auth-session&lt;br&gt;origin: *.example.local" style="text;html=1;align=left;verticalAlign=middle;resizable=0;points=[];autosize=1;strokeColor=none;fillColor=none;" parent="1" vertex="1">
                    <mxGeometry x="210" y="490" width="140" height="60" as="geometry"/>
                </mxCell>
                <mxCell id="G9qSIX0Mn2szh2WbC5xG-7" style="edgeStyle=orthogonalEdgeStyle;rounded=0;orthogonalLoop=1;jettySize=auto;html=1;entryX=0;entryY=0.5;entryDx=0;entryDy=0;" parent="1" edge="1">
                    <mxGeometry relative="1" as="geometry">
                        <mxPoint x="400" y="560" as="sourcePoint"/>
                        <mxPoint x="160" y="560" as="targetPoint"/>
                    </mxGeometry>
                </mxCell>
                <mxCell id="G9qSIX0Mn2szh2WbC5xG-8" style="edgeStyle=orthogonalEdgeStyle;rounded=0;orthogonalLoop=1;jettySize=auto;html=1;entryX=0.438;entryY=0.995;entryDx=0;entryDy=0;entryPerimeter=0;exitX=-0.001;exitY=0.668;exitDx=0;exitDy=0;exitPerimeter=0;" parent="1" source="G9qSIX0Mn2szh2WbC5xG-4" target="G9qSIX0Mn2szh2WbC5xG-3" edge="1">
                    <mxGeometry relative="1" as="geometry">
                        <mxPoint x="390" y="680" as="sourcePoint"/>
                        <mxPoint x="70" y="590" as="targetPoint"/>
                        <Array as="points">
                            <mxPoint x="70" y="680"/>
                        </Array>
                    </mxGeometry>
                </mxCell>
                <mxCell id="G9qSIX0Mn2szh2WbC5xG-9" value="select active session and authorization with /instrospect" style="text;html=1;align=center;verticalAlign=middle;resizable=0;points=[];autosize=1;strokeColor=none;fillColor=none;" parent="1" vertex="1">
                    <mxGeometry x="80" y="640" width="320" height="30" as="geometry"/>
                </mxCell>
                <mxCell id="G9qSIX0Mn2szh2WbC5xG-10" value="introspection response" style="text;html=1;align=center;verticalAlign=middle;resizable=0;points=[];autosize=1;strokeColor=none;fillColor=none;" parent="1" vertex="1">
                    <mxGeometry x="170" y="680" width="140" height="30" as="geometry"/>
                </mxCell>
                <mxCell id="G9qSIX0Mn2szh2WbC5xG-11" value="session list response" style="text;html=1;align=left;verticalAlign=middle;resizable=0;points=[];autosize=1;strokeColor=none;fillColor=none;" parent="1" vertex="1">
                    <mxGeometry x="210" y="560" width="130" height="30" as="geometry"/>
                </mxCell>
            </root>
        </mxGraphModel>
    </diagram>
    <diagram id="hq6KJ0LbCyb4bZhUODRr" name="end_session">
        <mxGraphModel dx="657" dy="544" grid="1" gridSize="10" guides="1" tooltips="1" connect="1" arrows="1" fold="1" page="1" pageScale="1" pageWidth="850" pageHeight="1100" math="0" shadow="0">
            <root>
                <mxCell id="0"/>
                <mxCell id="1" parent="0"/>
                <mxCell id="KrpGVblwt4OtaFmM_F6Q-1" style="edgeStyle=orthogonalEdgeStyle;rounded=0;orthogonalLoop=1;jettySize=auto;html=1;entryX=0;entryY=0.5;entryDx=0;entryDy=0;" parent="1" source="KrpGVblwt4OtaFmM_F6Q-2" target="KrpGVblwt4OtaFmM_F6Q-5" edge="1">
                    <mxGeometry relative="1" as="geometry"/>
                </mxCell>
                <mxCell id="KrpGVblwt4OtaFmM_F6Q-2" value="app1.example.local" style="rounded=0;whiteSpace=wrap;html=1;" parent="1" vertex="1">
                    <mxGeometry y="740" width="160" height="60" as="geometry"/>
                </mxCell>
                <mxCell id="KrpGVblwt4OtaFmM_F6Q-3" value="identity server" style="rounded=0;whiteSpace=wrap;html=1;" parent="1" vertex="1">
                    <mxGeometry x="640" y="740" width="120" height="60" as="geometry"/>
                </mxCell>
                <mxCell id="KrpGVblwt4OtaFmM_F6Q-4" style="edgeStyle=orthogonalEdgeStyle;rounded=0;orthogonalLoop=1;jettySize=auto;html=1;entryX=0;entryY=0.5;entryDx=0;entryDy=0;" parent="1" source="KrpGVblwt4OtaFmM_F6Q-5" target="KrpGVblwt4OtaFmM_F6Q-3" edge="1">
                    <mxGeometry relative="1" as="geometry"/>
                </mxCell>
                <mxCell id="KrpGVblwt4OtaFmM_F6Q-5" value="auth.example.local" style="rounded=0;whiteSpace=wrap;html=1;" parent="1" vertex="1">
                    <mxGeometry x="340" y="740" width="120" height="60" as="geometry"/>
                </mxCell>
                <mxCell id="KrpGVblwt4OtaFmM_F6Q-6" value="POST /v1/signout" style="text;html=1;align=center;verticalAlign=middle;resizable=0;points=[];autosize=1;strokeColor=none;fillColor=none;" parent="1" vertex="1">
                    <mxGeometry x="180" y="740" width="120" height="30" as="geometry"/>
                </mxCell>
                <mxCell id="KrpGVblwt4OtaFmM_F6Q-7" style="edgeStyle=orthogonalEdgeStyle;rounded=0;orthogonalLoop=1;jettySize=auto;html=1;entryX=0;entryY=0.5;entryDx=0;entryDy=0;exitX=0.005;exitY=0.668;exitDx=0;exitDy=0;exitPerimeter=0;" parent="1" source="KrpGVblwt4OtaFmM_F6Q-5" edge="1">
                    <mxGeometry relative="1" as="geometry">
                        <mxPoint x="340" y="780" as="sourcePoint"/>
                        <mxPoint x="160" y="780" as="targetPoint"/>
                    </mxGeometry>
                </mxCell>
                <mxCell id="KrpGVblwt4OtaFmM_F6Q-8" style="edgeStyle=orthogonalEdgeStyle;rounded=0;orthogonalLoop=1;jettySize=auto;html=1;exitX=0.011;exitY=0.663;exitDx=0;exitDy=0;exitPerimeter=0;" parent="1" source="KrpGVblwt4OtaFmM_F6Q-3" edge="1">
                    <mxGeometry relative="1" as="geometry">
                        <mxPoint x="580" y="780" as="sourcePoint"/>
                        <mxPoint x="460" y="780" as="targetPoint"/>
                    </mxGeometry>
                </mxCell>
                <mxCell id="KrpGVblwt4OtaFmM_F6Q-9" value="GET /end_session" style="text;html=1;align=center;verticalAlign=middle;resizable=0;points=[];autosize=1;strokeColor=none;fillColor=none;" parent="1" vertex="1">
                    <mxGeometry x="480" y="740" width="120" height="30" as="geometry"/>
                </mxCell>
            </root>
        </mxGraphModel>
    </diagram>
</mxfile>